<svg id="Layer_1" data-name="Layer 1" xmlns="http://www.w3.org/2000/svg" viewBox="0 0 187 79.93"><title>newlogo</title><g id="Group_36" data-name="Group 36"><g id="tyler" style="isolation:isolate"><text transform="translate(37 50.4)" style="isolation:isolate;font-size:56px;fill:#fff;font-family:AdobeHandwriting-Frank, Adobe Handwriting">tyler</text><g style="isolation:isolate"><path d="M51.62,62.39l-1.8-1.16-.91-1.33-.46-1.52L48.27,57V54.62l.28-2.24L49,50l1.21-4.35L52,40.52l-.13-.06L50.61,39.1l-.51-1.81.78-2.22,1.86-.72,1.59-.12L55.89,31l1-2.79.55-1.8.07-.61-.31-1.85,1.44-1.57,2-.42,2,.88,1.09,1.72.27,1.92-.64,1.42-1.07,1.56-.27,1.17-1.32,2.31L64.43,32l2.47-.29h4.66l-2.47,4-1.46.35-.83.66-7.07,1.8-1.59.58L56.4,43.6l-2.78,9.3v2.63l.63-.3L56.46,54l.9-.3,1.47-1.25,2-1.35,2.49-1.6,2.89,2.21-2.24,3.46-2.06,1.63-2.25,1.64-4,2.43-2.24,1ZM52,59l.11.07.07,0-.62-.91.12.4ZM53.6,37.91l1.57.6.53-1.38-2.46.26.06.2Zm3.84-3.21-.88,1.81L58.12,36l-.79-.18Zm3-9.58.1.59L60.43,27l.45-.65.11-.26-.06-.45-.25-.39Z" transform="translate(-6.16 -9.79)" style="fill:#fff"/><path d="M67.47,76.92,65,76.67l-2.19-.77-2.31-1.25-1.62-1.9-1-1.47-1.43-4.37L59,63.37l2,3.43.6,1.71.7,1,1.12,1.08,1.23,1,1.71.51,2-.13,1.79-.51,1-1.07,1.42-.89L73,69l.3-1.6,1.49-2.18.5-1.68.9-1.72,1.69-2.71-.15-1.65.87-2.72.6-1.4.5-3,.7-2.76.15-1.21v-.53l-1.64,1.3-1.19,1.39-1.56,1.23L75,51l-1.31,1.58L72,54.19l-3.93,1.15-2.7-2L65,51.19l-.56-1.83.32-2.68.64-2L65.72,43l.49-1.31.11-1.5.6-1.68,1.7-7.25,4.46-1.11,1.4,4-.63,1.86-1.59,3.18-.33,1.55-.6,1.41-.43,1.25L70.69,45l-.62,2L70,48l.08.39.11-.08,2.3-2.19L73.71,45l2-2.07,2-2.71,2.93-5,.91-2.14,4.16-.62L87.45,36l-1.21,3.58.15,1.58-.27,2-.35,1.55.06,1.88-.63,1.84-.07,1.69-.35,2L83.1,57.06,82.8,59,81.48,62.2,81,63.76,80.4,65.1l-.56,1.57-1.06,2.18L77,72,73.56,75.6l-1.63.55-1.32.59-1.86.07Zm.64-25.3.55.42.43-.13L68,50.72ZM83.69,35.84l-.37.86-1.63,2.78,2.19-2.37v.11l.34-1-.2-.42ZM71.12,33.76l-.45,1.94.44-.9.2-.59-.16-.46Z" transform="translate(-6.16 -9.79)" style="fill:#fff"/><path d="M90.93,62.3l-2-.73-.32-2.47-.46-1.17.25-2.52v-1.9l.19-2.14L89.5,47l1.5-4.6.41-1L92,39.24l1.41-4.17.24-1,.2-1.43,1.13-2L99.35,18l3.3.71L104,20l.5,1.8L104,23.62l-.89.78L100,32.15l-.92,3.49-.92,1.89-1.48,4.18-2.24,7.65-.6,4.21-.08,1L95,53.45l.75-.49.62-1,1.3-1.07,1.37-.71,1-.82,2.25-.65.55,2.74-.46.73-.24,1.15L101,54.81l-1.08,1.08-2.09,2.34-2.21,1.53-.25.26L95,61.47Zm.65-3.3v.1l1-.19.07-.3Zm9.71-37.46-.23.67.31-.28,0-.11Z" transform="translate(-6.16 -9.79)" style="fill:#fff"/><path d="M106.51,62.53h-1.19l-1.45-1.11-.93-1-.82-1.14L101.05,57l-.48-2.49,0-2.68.37-2.52,1.83-6.77,1-2.1,2.24-3.53,1.1-2,.81-.66-.2-.44.59-1.53,1.13-1.33,1.13-.86,1.62-.63,3.93.88,1,.37,1.68,1.5.41.57,1.28-.43,0,4.59-.64,2.41-2.21,4.91-2.76,3.51-1.81,1.54-.61.33-.37.56-1.2.91-1.16.59-1.37.46-2.28.37h0v1.78l.09.94.27.65.22.28.73.17h1.76l.85-.28.9-.45.67-.51.75-1,3.25-2.86.49-.53,1.41-2.6,3.45-.38-.05,3.39-.61,2.39-.9,1.44-1.66,1.66-.91,1.22-4.93,3.5-1.25.6-1.41.39-1.45.13-.83-.16Zm.8-3.2.61.13,1-.13Zm-1.4-.11.21.15.35-.17-.76-.19Zm2.3-14.84-1.28,3,.41-.22,1.29-1.43,1.64-1.32.51-.59.62-1.24.77-.45,1.11-1.62,1-1.84.33-2-1,.77-1.7,1.44-.63.37-1.41,1.7-.33.62-.24,1.2ZM111,33.74l.24.54-.89,1.89-.49.39.36-.22,1.48-1.26L114.45,33l-2-.43-.39.15-.64.49Zm6.41,1.55.15.61,0-.48Zm-1.84-2,.19.12Z" transform="translate(-6.16 -9.79)" style="fill:#fff"/><path d="M124.57,64l-2.37-1.48-2.35-2,.31-2.3,1.5-2.82.24-2.41,1.63-6.11,1.09-4.7.68-1.94,0-.55.28-1.43.73-1.87.12-.68v-.75l-.63-2.51,1.29-1.76,1.37-1.37,3.15.45,1.58,1.4.72,1.54v.85l.38,1.33-1.6,2-.91,1.57-.83,1.87-.5,1.56.72-.74.81-1,1.15-.64,1.12-.85,1-.43,2.19-1.71,1.37-.18.73-.4,2.31-.27h2.66l1.18,2.65-1.16,1.73-1.86.31-1.93.67-1.86.87-1.69,1.08-2.37,2-1.38,1.49-2.53,3.43-2.1,3.78-1.23,2.75-.23,1.59-.23.61.1.23-.06.39.3.71L126.06,62ZM123,59.25l.77.67.21-.35,0-.08.06-.39-.24-.56L124.4,57l.06-.52-1.4,2.63Zm1.79-5.69-.15,1.68,1.39-3.12,1.81-3.24-2.21,1.53ZM129,33l.38,1.71,0,1.32-.11.65,1-1.68.68-.85-.06-.24v-.6l-.18-.37-.44-.4-.77-.11-.22.23Z" transform="translate(-6.16 -9.79)" style="fill:#fff"/></g></g><path id="Polygon_1" data-name="Polygon 1" d="M6.16,47.69l37-21.5v43Z" transform="translate(-6.16 -9.79)" style="fill:#00ff80"/><path id="Path_33" data-name="Path 33" d="M130.75,80.46c-4.24,9.64,6.94,9.26,6.94,9.26l29.79-73.95s-5.89-9.32-8.2-4.7S135,70.83,130.75,80.46Z" transform="translate(-6.16 -9.79)" style="fill:#707070"/><g id="Polygon_2" data-name="Polygon 2"><path d="M193.16,47.69l-37,21.5v-43Z" transform="translate(-6.16 -9.79)" style="fill:none"/><path d="M181.22,47.69,162.16,36.61V58.76l19.06-11.07m11.94,0-37,21.5v-43Z" transform="translate(-6.16 -9.79)" style="fill:#00e5ff"/></g></g></svg>